<?xml version="1.0" encoding="UTF-8" standalone="no"?>
<!DOCTYPE svg PUBLIC "-//W3C//DTD SVG 1.1//EN" "http://www.w3.org/Graphics/SVG/1.1/DTD/svg11.dtd">
<svg width="100%" height="100%" viewBox="0 0 32 32" version="1.1" xmlns="http://www.w3.org/2000/svg" xmlns:xlink="http://www.w3.org/1999/xlink" xml:space="preserve" xmlns:serif="http://www.serif.com/" style="fill-rule:evenodd;clip-rule:evenodd;stroke-linecap:round;stroke-linejoin:round;">
    <g transform="matrix(0.89605,0,0,0.887281,1.656957,1.803502)">
        <ellipse cx="15.94" cy="16" rx="15.94" ry="16"/>
    </g>
    <g transform="matrix(0.826812,0,0,0.826812,15.94,16)">
        <g transform="matrix(1,0,0,1,-12,-12)">
            <path d="M14,18C14,16.903 13.097,16 12,16C10.903,16 10,16.903 10,18" style="fill:none;fill-rule:nonzero;stroke:white;stroke-width:2px;"/>
            <path d="M19,11L16.89,4.343C16.611,3.541 15.85,2.999 15.001,2.999C14.702,2.999 14.407,3.066 14.138,3.195L12.862,3.805C12.593,3.933 12.298,4 12,4L8.5,4C7.607,4 6.818,4.597 6.575,5.456L5,11" style="fill:none;fill-rule:nonzero;stroke:white;stroke-width:2px;"/>
            <path d="M2,11L22,11" style="fill:none;fill-rule:nonzero;stroke:white;stroke-width:2px;"/>
            <circle cx="17" cy="18" r="3" style="fill:none;stroke:white;stroke-width:2px;"/>
            <circle cx="7" cy="18" r="3" style="fill:none;stroke:white;stroke-width:2px;"/>
        </g>
    </g>
</svg>
