<?xml version="1.0" encoding="UTF-8" standalone="no"?><!DOCTYPE svg PUBLIC "-//W3C//DTD SVG 1.1//EN" "http://www.w3.org/Graphics/SVG/1.1/DTD/svg11.dtd"><svg width="100%" height="100%" viewBox="0 0 32 32" version="1.1" xmlns="http://www.w3.org/2000/svg" xmlns:xlink="http://www.w3.org/1999/xlink" xml:space="preserve" xmlns:serif="http://www.serif.com/" style="fill-rule:evenodd;clip-rule:evenodd;stroke-linecap:round;stroke-linejoin:round;"><g><circle cx="16" cy="16" r="16" style="fill:#0f1218;"/></g><g><g><path d="M18.008,22.062c0,-1.108 -0.907,-2.021 -2.008,-2.021c-1.102,0 -2.008,0.912 -2.008,2.021" style="fill:none;fill-rule:nonzero;stroke:#fff;stroke-width:2.01px;"/><path d="M23.029,14.99l-2.119,-6.725c-0.28,-0.81 -1.044,-1.358 -1.897,-1.358c-0.3,0 -0.596,0.068 -0.867,0.198l-1.281,0.616c-0.27,0.129 -0.566,0.197 -0.866,0.197l-3.515,0c-0.897,0 -1.689,0.603 -1.933,1.471l-1.582,5.601" style="fill:none;fill-rule:nonzero;stroke:#fff;stroke-width:2.01px;"/><path d="M5.958,14.99l20.083,0" style="fill:none;fill-rule:nonzero;stroke:#fff;stroke-width:2.01px;"/><ellipse cx="21.021" cy="22.062" rx="3.012" ry="3.031" style="fill:none;stroke:#fff;stroke-width:2.01px;"/><ellipse cx="10.979" cy="22.062" rx="3.012" ry="3.031" style="fill:none;stroke:#fff;stroke-width:2.01px;"/></g></g></svg>